<?xml version="1.0" encoding="UTF-8" standalone="no"?>
<svg width="24px" height="24px" viewBox="0 0 24 24" version="1.1" xmlns="http://www.w3.org/2000/svg">
    <g fill="#000000">
        <path d="M0,0 L24,0 L24,24 L0,24 L0,0 Z M19.5,5.5 L18.828,5.5 C18.4775,5.5 18,5.94 18,6.2705 L18,17.25 C18,17.58 18.4775,18 18.828,18 L19.5,18 L19.5,20 L12.5,20 L12.5,18 L14,18 L14,6 L14,6 L13.863,6 L9.95,20 L7.537,20 L3.7,6 L3.7,6 L3.5,6 L3.5,18 L5,18 L5,20 L0,20 L0,18 L0.672,18 C1.023,18 1.5,17.58 1.5,17.25 L1.5,6.2705 C1.5,5.94 1.023,5.5 0.672,5.5 L0,5.5 L0,3.5 L7.5,3.5 L10.214,13.8255 L10.214,13.8255 L10.286,13.8255 L13.214,3.5 L20.5,3.5 L20.5,5.5 L19.5,5.5 Z" />
    </g>
</svg>