<?xml version="1.0" encoding="UTF-8" standalone="no"?>
<svg width="24px" height="24px" viewBox="0 0 24 24" version="1.1" xmlns="http://www.w3.org/2000/svg">
    <g fill="#FF0000">
        <path d="M23.498,6.186 C23.2376,5.26058025 22.5141604,4.53301759 21.593,4.268 C19.694,3.758 12.004,3.758 12.004,3.758 C12.004,3.758 4.31299529,3.758 2.41399529,4.268 C1.49299529,4.53301759 0.769596592,5.26058025 0.509,6.186 C0,8.094 0,12 0,12 C0,12 0,15.906 0.509,17.814 C0.769596592,18.7393489 1.49299529,19.4669116 2.41399529,19.732 C4.31299529,20.242 12.004,20.242 12.004,20.242 C12.004,20.242 19.694,20.242 21.593,19.732 C22.5141604,19.4669116 23.2376,18.7393489 23.498,17.814 C24.006,15.906 24.006,12 24.006,12 C24.006,12 24.006,8.094 23.498,6.186 Z M9.6,15.602 L9.6,8.398 L15.901,12 L9.6,15.602 Z" />
    </g>
</svg>